<?xml version="1.0" encoding="UTF-8"?>
<!DOCTYPE svg PUBLIC "-//W3C//DTD SVG 1.1//EN" "http://www.w3.org/Graphics/SVG/1.1/DTD/svg11.dtd">
<!-- Creator: CorelDRAW 2020 (64 Bit) -->
<svg xmlns="http://www.w3.org/2000/svg" xml:space="preserve" width="45.5076mm" height="5.3919mm" version="1.1" style="shape-rendering:geometricPrecision; text-rendering:geometricPrecision; image-rendering:optimizeQuality; fill-rule:evenodd; clip-rule:evenodd"
viewBox="0 0 4536.54 537.51"
 xmlns:xlink="http://www.w3.org/1999/xlink"
 xmlns:xodm="http://www.corel.com/coreldraw/odm/2003">
 <defs>
  <style type="text/css">
   <![CDATA[
    .fil0 {fill:#FEFEFE;fill-rule:nonzero}
    .fil1 {fill:#49AA26;fill-rule:nonzero}
   ]]>
  </style>
 </defs>
 <g id="Camada_x0020_1">
  <metadata id="CorelCorpID_0Corel-Layer"/>
  <path class="fil0" d="M-0 313.91c0,-35.22 7.16,-66.04 21.49,-92.45 14.34,-26.42 34.2,-46.89 59.59,-61.44 25.39,-14.53 54.46,-21.8 87.23,-21.8 42.18,0 77.1,10.55 104.74,31.63 27.63,21.09 46.17,50.68 55.59,88.77l-92.76 0c-4.91,-14.74 -13.2,-26.32 -24.87,-34.71 -11.67,-8.39 -26.11,-12.59 -43.31,-12.59 -24.57,0 -44.02,8.9 -58.36,26.72 -14.34,17.81 -21.5,43.1 -21.5,75.87 0,32.35 7.17,57.43 21.5,75.24 14.34,17.81 33.78,26.73 58.36,26.73 34.81,0 57.54,-15.56 68.19,-46.68l92.76 0c-9.42,36.85 -28.05,66.13 -55.89,87.84 -27.85,21.7 -62.66,32.56 -104.43,32.56 -32.77,0 -61.84,-7.28 -87.23,-21.81 -25.39,-14.53 -45.26,-35.01 -59.59,-61.43 -14.34,-26.42 -21.49,-57.23 -21.49,-92.45z"/>
  <path id="1" class="fil0" d="M543.03 489.6c-32.77,0 -62.24,-7.28 -88.46,-21.81 -26.21,-14.53 -46.78,-35.12 -61.74,-61.74 -14.94,-26.62 -22.42,-57.33 -22.42,-92.14 0,-34.81 7.68,-65.52 23.04,-92.15 15.36,-26.62 36.35,-47.19 62.96,-61.74 26.63,-14.53 56.31,-21.8 89.07,-21.8 32.77,0 62.45,7.27 89.08,21.8 26.62,14.54 47.6,35.12 62.96,61.74 15.35,26.63 23.04,57.34 23.04,92.15 0,34.81 -7.89,65.52 -23.66,92.14 -15.76,26.62 -37.06,47.2 -63.88,61.74 -26.83,14.53 -56.82,21.81 -90,21.81zm0 -74.95c15.56,0 30.21,-3.79 43.92,-11.36 13.72,-7.58 24.67,-18.94 32.87,-34.09 8.18,-15.15 12.28,-33.58 12.28,-55.29 0,-32.36 -8.49,-57.23 -25.49,-74.64 -17,-17.41 -37.78,-26.11 -62.35,-26.11 -24.57,0 -45.15,8.7 -61.74,26.11 -16.59,17.41 -24.88,42.28 -24.88,74.64 0,32.35 8.09,57.23 24.27,74.64 16.17,17.41 36.55,26.11 61.12,26.11z"/>
  <path id="2" class="fil0" d="M869.83 196.57c11.06,-18.02 25.49,-32.15 43.3,-42.39 17.81,-10.24 38.19,-15.36 61.13,-15.36l0 90.31 -22.73 0c-27.04,0 -47.4,6.35 -61.13,19.04 -13.72,12.7 -20.58,34.81 -20.58,66.34l0 169.55 -86 0 0 -340.32 86 0 0 52.83z"/>
  <path id="3" class="fil0" d="M1118.01 196.57c11.06,-18.02 25.49,-32.15 43.3,-42.39 17.81,-10.24 38.19,-15.36 61.13,-15.36l0 90.31 -22.73 0c-27.04,0 -47.4,6.35 -61.13,19.04 -13.72,12.7 -20.58,34.81 -20.58,66.34l0 169.55 -86 0 0 -340.32 86 0 0 52.83z"/>
  <path id="4" class="fil0" d="M1596.54 306.53c0,12.29 -0.82,23.35 -2.45,33.18l-248.79 0c2.04,24.57 10.65,43.82 25.8,57.74 15.15,13.93 33.78,20.88 55.9,20.88 31.94,0 54.67,-13.72 68.19,-41.15l92.76 0c-9.83,32.76 -28.67,59.68 -56.52,80.78 -27.84,21.09 -62.05,31.64 -102.59,31.64 -32.76,0 -62.15,-7.28 -88.14,-21.81 -26.01,-14.53 -46.28,-35.12 -60.82,-61.74 -14.53,-26.62 -21.8,-57.33 -21.8,-92.14 0,-35.22 7.16,-66.14 21.49,-92.76 14.34,-26.63 34.4,-47.1 60.2,-61.43 25.8,-14.34 55.5,-21.5 89.07,-21.5 32.36,0 61.33,6.96 86.93,20.88 25.6,13.93 45.46,33.68 59.58,59.27 14.14,25.6 21.19,54.99 21.19,88.15zm-89.07 -24.57c-0.41,-22.11 -8.39,-39.83 -23.95,-53.13 -15.56,-13.31 -34.61,-19.97 -57.13,-19.97 -21.29,0 -39.22,6.45 -53.75,19.35 -14.53,12.9 -23.45,30.82 -26.73,53.75l161.56 0z"/>
  <path id="5" class="fil0" d="M1702.8 103.2c-15.15,0 -27.74,-4.8 -37.78,-14.43 -10.03,-9.62 -15.04,-21.6 -15.04,-35.94 0,-14.33 5.01,-26.31 15.04,-35.94 10.04,-9.62 22.63,-14.43 37.78,-14.43 15.15,0 27.74,4.81 37.78,14.43 10.03,9.63 15.05,21.61 15.05,35.94 0,14.34 -5.02,26.32 -15.05,35.94 -10.04,9.63 -22.63,14.43 -37.78,14.43zm42.39 40.54l0 340.32 -86 0 0 -340.32 86 0z"/>
  <path id="6" class="fil0" d="M1807.86 312.67c0,-34.39 6.86,-64.91 20.58,-91.52 13.72,-26.63 32.35,-47.1 55.89,-61.43 23.56,-14.34 49.86,-21.5 78.94,-21.5 25.39,0 47.61,5.11 66.65,15.35 19.04,10.24 34.29,23.14 45.77,38.71l0 -48.54 86.61 0 0 340.32 -86.61 0 0 -49.75c-11.06,15.97 -26.32,29.18 -45.77,39.62 -19.45,10.45 -41.88,15.67 -67.27,15.67 -28.66,0 -54.77,-7.38 -78.32,-22.12 -23.55,-14.74 -42.18,-35.53 -55.89,-62.34 -13.72,-26.83 -20.58,-57.65 -20.58,-92.46zm267.83 1.24c0,-20.88 -4.1,-38.81 -12.29,-53.75 -8.18,-14.95 -19.25,-26.42 -33.17,-34.4 -13.93,-7.98 -28.88,-11.98 -44.85,-11.98 -15.97,0 -30.71,3.9 -44.22,11.67 -13.52,7.79 -24.47,19.15 -32.87,34.09 -8.39,14.95 -12.6,32.66 -12.6,53.13 0,20.49 4.21,38.4 12.6,53.75 8.39,15.36 19.45,27.13 33.17,35.33 13.73,8.18 28.36,12.28 43.92,12.28 15.97,0 30.92,-3.99 44.85,-11.98 13.92,-7.98 24.98,-19.45 33.17,-34.39 8.19,-14.95 12.29,-32.87 12.29,-53.75z"/>
  <path id="7" class="fil0" d="M2557.3 489.6c-32.77,0 -62.24,-7.28 -88.46,-21.81 -26.21,-14.53 -46.78,-35.12 -61.74,-61.74 -14.94,-26.62 -22.42,-57.33 -22.42,-92.14 0,-34.81 7.68,-65.52 23.04,-92.15 15.36,-26.62 36.35,-47.19 62.96,-61.74 26.63,-14.53 56.31,-21.8 89.07,-21.8 32.77,0 62.45,7.27 89.08,21.8 26.62,14.54 47.6,35.12 62.96,61.74 15.35,26.63 23.04,57.34 23.04,92.15 0,34.81 -7.89,65.52 -23.66,92.14 -15.76,26.62 -37.06,47.2 -63.88,61.74 -26.83,14.53 -56.82,21.81 -90,21.81zm0 -74.95c15.56,0 30.21,-3.79 43.92,-11.36 13.72,-7.58 24.67,-18.94 32.87,-34.09 8.18,-15.15 12.28,-33.58 12.28,-55.29 0,-32.36 -8.49,-57.23 -25.49,-74.64 -17,-17.41 -37.78,-26.11 -62.35,-26.11 -24.57,0 -45.15,8.7 -61.74,26.11 -16.59,17.41 -24.88,42.28 -24.88,74.64 0,32.35 8.09,57.23 24.27,74.64 16.17,17.41 36.55,26.11 61.12,26.11z"/>
  <path id="8" class="fil0" d="M3119.38 143.74l0 340.32 -86.61 0 0 -43.01c-11.07,14.74 -25.5,26.32 -43.31,34.71 -17.81,8.39 -37.16,12.59 -58.05,12.59 -26.62,0 -50.17,-5.63 -70.65,-16.89 -20.48,-11.26 -36.55,-27.85 -48.22,-49.76 -11.67,-21.9 -17.51,-48.01 -17.51,-78.31l0 -199.65 86 0 0 187.36c0,27.03 6.76,47.81 20.27,62.35 13.52,14.53 31.95,21.8 55.29,21.8 23.76,0 42.39,-7.27 55.9,-21.8 13.52,-14.54 20.28,-35.33 20.28,-62.35l0 -187.36 86.61 0z"/>
  <path id="9" class="fil0" d="M3304.28 214.39l0 164.63c0,11.46 2.77,19.76 8.29,24.87 5.53,5.12 14.84,7.69 27.95,7.69l39.91 0 0 72.48 -54.04 0c-72.49,0 -108.73,-35.22 -108.73,-105.66l0 -164.02 -40.54 0 0 -70.65 40.54 0 0 -84.16 86.61 0 0 84.16 76.16 0 0 70.65 -76.16 0z"/>
  <polygon id="10" class="fil0" points="3528.48,29.49 3528.48,484.06 3442.48,484.06 3442.48,29.49 "/>
  <path id="11" class="fil0" d="M3929.62 306.53c0,12.29 -0.82,23.35 -2.45,33.18l-248.79 0c2.04,24.57 10.65,43.82 25.8,57.74 15.15,13.93 33.78,20.88 55.9,20.88 31.94,0 54.67,-13.72 68.19,-41.15l92.76 0c-9.83,32.76 -28.67,59.68 -56.52,80.78 -27.84,21.09 -62.05,31.64 -102.59,31.64 -32.76,0 -62.15,-7.28 -88.14,-21.81 -26.01,-14.53 -46.28,-35.12 -60.82,-61.74 -14.53,-26.62 -21.8,-57.33 -21.8,-92.14 0,-35.22 7.16,-66.14 21.49,-92.76 14.34,-26.63 34.4,-47.1 60.2,-61.43 25.8,-14.34 55.5,-21.5 89.07,-21.5 32.36,0 61.33,6.96 86.93,20.88 25.6,13.93 45.46,33.68 59.58,59.27 14.14,25.6 21.19,54.99 21.19,88.15zm-89.07 -24.57c-0.41,-22.11 -8.39,-39.83 -23.95,-53.13 -15.56,-13.31 -34.61,-19.97 -57.13,-19.97 -21.29,0 -39.22,6.45 -53.75,19.35 -14.53,12.9 -23.45,30.82 -26.73,53.75l161.56 0z"/>
  <path id="12" class="fil0" d="M4092.41 214.39l0 164.63c0,11.46 2.77,19.76 8.29,24.87 5.53,5.12 14.84,7.69 27.95,7.69l39.92 0 0 72.48 -54.05 0c-72.49,0 -108.73,-35.22 -108.73,-105.66l0 -164.02 -40.54 0 0 -70.65 40.54 0 0 -84.16 86.61 0 0 84.16 76.17 0 0 70.65 -76.17 0z"/>
  <path id="13" class="fil1" d="M2284.54 488.36c-15.56,0 -28.35,-4.8 -38.39,-14.43 -10.03,-9.62 -15.05,-21.6 -15.05,-35.94 0,-14.33 5.02,-26.31 15.05,-35.94 10.04,-9.62 22.83,-14.43 38.39,-14.43 15.15,0 27.64,4.81 37.47,14.43 9.83,9.63 14.74,21.61 14.74,35.94 0,14.34 -4.91,26.32 -14.74,35.94 -9.83,9.63 -22.32,14.43 -37.47,14.43z"/>
  <path id="14" class="fil1" d="M4536.54 360.59c0,21.29 -5.43,41.26 -16.28,59.89 -10.86,18.63 -26.83,33.99 -47.92,46.08 -21.09,12.08 -45.97,19.14 -74.64,21.19l0 49.75 -39.32 0 0 -50.37c-40.95,-3.69 -73.92,-16.07 -98.9,-37.16 -24.98,-21.09 -37.88,-49.65 -38.7,-85.69l92.14 0c2.46,29.49 17.61,47.3 45.46,53.44l0 -117.33c-29.49,-7.37 -53.23,-14.74 -71.26,-22.11 -18.01,-7.38 -33.58,-19.25 -46.68,-35.63 -13.11,-16.39 -19.66,-38.71 -19.66,-66.96 0,-35.63 12.8,-64.71 38.39,-87.24 25.6,-22.52 58.67,-35.42 99.21,-38.7l0 -49.75 39.32 0 0 49.75c39.32,3.28 70.75,15.15 94.29,35.63 23.55,20.48 36.75,48.74 39.63,84.77l-92.76 0c-1.23,-11.87 -5.43,-22.22 -12.59,-31.02 -7.17,-8.8 -16.7,-15.04 -28.57,-18.73l0 116.1c30.71,7.79 54.98,15.26 72.79,22.43 17.81,7.16 33.28,18.83 46.38,35.01 13.1,16.18 19.66,38.39 19.66,66.65zm-226.06 -189.21c0,13.52 4.1,24.47 12.28,32.87 8.19,8.39 20.07,15.25 35.63,20.59l0 -106.28c-14.74,2.04 -26.41,7.58 -35.01,16.59 -8.6,9 -12.9,21.08 -12.9,36.24zm87.23 247.56c15.56,-2.87 27.74,-9.21 36.56,-19.04 8.8,-9.83 13.2,-21.71 13.2,-35.63 0,-13.52 -4.3,-24.37 -12.9,-32.56 -8.59,-8.19 -20.88,-14.95 -36.85,-20.28l0 107.5z"/>
 </g>
</svg>
